<mxfile host="www.draw.io" modified="2019-11-22T14:58:17.115Z" agent="Mozilla/5.0 (X11; Linux x86_64; rv:68.0) Gecko/20100101 Firefox/68.0" etag="u_3qUq15GmNdoE0b4YKt" version="12.2.9" type="github" pages="1">
  <diagram id="QyNKdFkUj0eCCD_k6pW2" name="Page-1">
    <mxGraphModel dx="986" dy="776" grid="1" gridSize="10" guides="1" tooltips="1" connect="1" arrows="1" fold="1" page="1" pageScale="1" pageWidth="827" pageHeight="1169" math="0" shadow="0">
      <root>
        <mxCell id="0"/>
        <mxCell id="1" parent="0"/>
        <mxCell id="osJKglft7ATYs9inyH4e-1" value="" style="image;html=1;labelBackgroundColor=#ffffff;image=img/lib/clip_art/networking/Cloud_Rack_128x128.png" vertex="1" parent="1">
          <mxGeometry x="270" y="40" width="260" height="160" as="geometry"/>
        </mxCell>
        <mxCell id="osJKglft7ATYs9inyH4e-2" value="Server Web in cloud" style="text;html=1;resizable=0;autosize=1;align=center;verticalAlign=middle;points=[];fillColor=none;strokeColor=none;rounded=0;fontSize=15;" vertex="1" parent="1">
          <mxGeometry x="320" y="10" width="160" height="20" as="geometry"/>
        </mxCell>
        <mxCell id="osJKglft7ATYs9inyH4e-9" value="Internet" style="text;html=1;resizable=0;autosize=1;align=center;verticalAlign=middle;points=[];fillColor=none;strokeColor=none;rounded=0;fontSize=15;" vertex="1" parent="1">
          <mxGeometry x="415" y="250" width="70" height="20" as="geometry"/>
        </mxCell>
        <mxCell id="osJKglft7ATYs9inyH4e-10" value="Rete Locale" style="whiteSpace=wrap;html=1;fontSize=15;align=center;horizontal=1;verticalAlign=top;" vertex="1" parent="1">
          <mxGeometry x="230" y="320" width="340" height="280" as="geometry"/>
        </mxCell>
        <mxCell id="osJKglft7ATYs9inyH4e-11" value="" style="aspect=fixed;perimeter=ellipsePerimeter;html=1;align=center;shadow=0;dashed=0;spacingTop=3;image;image=img/lib/active_directory/vista_client.svg;fontSize=15;" vertex="1" parent="1">
          <mxGeometry x="215.5" y="900" width="38" height="50" as="geometry"/>
        </mxCell>
        <mxCell id="osJKglft7ATYs9inyH4e-12" value="" style="aspect=fixed;perimeter=ellipsePerimeter;html=1;align=center;shadow=0;dashed=0;spacingTop=3;image;image=img/lib/active_directory/vista_client.svg;fontSize=15;" vertex="1" parent="1">
          <mxGeometry x="546.5" y="900" width="38" height="50" as="geometry"/>
        </mxCell>
        <mxCell id="osJKglft7ATYs9inyH4e-13" value="" style="aspect=fixed;perimeter=ellipsePerimeter;html=1;align=center;shadow=0;dashed=0;spacingTop=3;image;image=img/lib/active_directory/vista_client.svg;fontSize=15;" vertex="1" parent="1">
          <mxGeometry x="480.5" y="900" width="38" height="50" as="geometry"/>
        </mxCell>
        <mxCell id="osJKglft7ATYs9inyH4e-14" value="" style="aspect=fixed;perimeter=ellipsePerimeter;html=1;align=center;shadow=0;dashed=0;spacingTop=3;image;image=img/lib/active_directory/vista_client.svg;fontSize=15;" vertex="1" parent="1">
          <mxGeometry x="281.5" y="900" width="38" height="50" as="geometry"/>
        </mxCell>
        <mxCell id="osJKglft7ATYs9inyH4e-15" value="" style="aspect=fixed;perimeter=ellipsePerimeter;html=1;align=center;shadow=0;dashed=0;spacingTop=3;image;image=img/lib/active_directory/vista_client.svg;fontSize=15;" vertex="1" parent="1">
          <mxGeometry x="347.5" y="900" width="38" height="50" as="geometry"/>
        </mxCell>
        <mxCell id="osJKglft7ATYs9inyH4e-16" value="" style="aspect=fixed;perimeter=ellipsePerimeter;html=1;align=center;shadow=0;dashed=0;spacingTop=3;image;image=img/lib/active_directory/vista_client.svg;fontSize=15;" vertex="1" parent="1">
          <mxGeometry x="414.5" y="900" width="38" height="50" as="geometry"/>
        </mxCell>
        <mxCell id="osJKglft7ATYs9inyH4e-18" value="" style="endArrow=classic;html=1;fontSize=15;entryX=0.065;entryY=1.014;entryDx=0;entryDy=0;entryPerimeter=0;" edge="1" parent="1" source="osJKglft7ATYs9inyH4e-11" target="osJKglft7ATYs9inyH4e-10">
          <mxGeometry width="50" height="50" relative="1" as="geometry">
            <mxPoint x="235" y="732" as="sourcePoint"/>
            <mxPoint x="190" y="680" as="targetPoint"/>
          </mxGeometry>
        </mxCell>
        <mxCell id="osJKglft7ATYs9inyH4e-19" value="" style="endArrow=classic;html=1;fontSize=15;entryX=0.25;entryY=1;entryDx=0;entryDy=0;exitX=0.5;exitY=0;exitDx=0;exitDy=0;" edge="1" parent="1" source="osJKglft7ATYs9inyH4e-14" target="osJKglft7ATYs9inyH4e-10">
          <mxGeometry width="50" height="50" relative="1" as="geometry">
            <mxPoint x="245" y="742" as="sourcePoint"/>
            <mxPoint x="262.0999999999999" y="633.9200000000001" as="targetPoint"/>
          </mxGeometry>
        </mxCell>
        <mxCell id="osJKglft7ATYs9inyH4e-20" value="" style="endArrow=classic;html=1;fontSize=15;entryX=0.406;entryY=1.014;entryDx=0;entryDy=0;exitX=0.5;exitY=0;exitDx=0;exitDy=0;entryPerimeter=0;" edge="1" parent="1" source="osJKglft7ATYs9inyH4e-15" target="osJKglft7ATYs9inyH4e-10">
          <mxGeometry width="50" height="50" relative="1" as="geometry">
            <mxPoint x="310.5" y="740" as="sourcePoint"/>
            <mxPoint x="325" y="630" as="targetPoint"/>
          </mxGeometry>
        </mxCell>
        <mxCell id="osJKglft7ATYs9inyH4e-21" value="" style="endArrow=classic;html=1;fontSize=15;exitX=0.5;exitY=0;exitDx=0;exitDy=0;" edge="1" parent="1" source="osJKglft7ATYs9inyH4e-16" target="osJKglft7ATYs9inyH4e-10">
          <mxGeometry width="50" height="50" relative="1" as="geometry">
            <mxPoint x="430" y="720" as="sourcePoint"/>
            <mxPoint x="378.03999999999996" y="633.9200000000001" as="targetPoint"/>
          </mxGeometry>
        </mxCell>
        <mxCell id="osJKglft7ATYs9inyH4e-22" value="" style="endArrow=classic;html=1;fontSize=15;exitX=0.25;exitY=0;exitDx=0;exitDy=0;entryX=0.726;entryY=1.011;entryDx=0;entryDy=0;entryPerimeter=0;" edge="1" parent="1" source="osJKglft7ATYs9inyH4e-13" target="osJKglft7ATYs9inyH4e-10">
          <mxGeometry width="50" height="50" relative="1" as="geometry">
            <mxPoint x="490" y="710" as="sourcePoint"/>
            <mxPoint x="476" y="620" as="targetPoint"/>
          </mxGeometry>
        </mxCell>
        <mxCell id="osJKglft7ATYs9inyH4e-23" value="" style="endArrow=classic;html=1;fontSize=15;exitX=0.25;exitY=0;exitDx=0;exitDy=0;entryX=0.882;entryY=0.996;entryDx=0;entryDy=0;entryPerimeter=0;" edge="1" parent="1" source="osJKglft7ATYs9inyH4e-12" target="osJKglft7ATYs9inyH4e-10">
          <mxGeometry width="50" height="50" relative="1" as="geometry">
            <mxPoint x="560" y="710" as="sourcePoint"/>
            <mxPoint x="530" y="630" as="targetPoint"/>
          </mxGeometry>
        </mxCell>
        <mxCell id="osJKglft7ATYs9inyH4e-24" value="VPN" style="text;html=1;strokeColor=none;fillColor=none;align=center;verticalAlign=middle;whiteSpace=wrap;rounded=0;fontSize=22;" vertex="1" parent="1">
          <mxGeometry x="195.5" y="665" width="40" height="20" as="geometry"/>
        </mxCell>
        <mxCell id="osJKglft7ATYs9inyH4e-26" value="" style="endArrow=classic;html=1;fontSize=15;entryX=0.482;entryY=-0.002;entryDx=0;entryDy=0;entryPerimeter=0;" edge="1" parent="1" source="osJKglft7ATYs9inyH4e-1" target="osJKglft7ATYs9inyH4e-10">
          <mxGeometry width="50" height="50" relative="1" as="geometry">
            <mxPoint x="270" y="240" as="sourcePoint"/>
            <mxPoint x="390" y="320" as="targetPoint"/>
          </mxGeometry>
        </mxCell>
        <mxCell id="osJKglft7ATYs9inyH4e-27" value="Ente A" style="rounded=0;whiteSpace=wrap;html=1;fontSize=22;align=center;" vertex="1" parent="1">
          <mxGeometry x="30" y="290" width="120" height="60" as="geometry"/>
        </mxCell>
        <mxCell id="osJKglft7ATYs9inyH4e-28" value="Ente B" style="rounded=0;whiteSpace=wrap;html=1;fontSize=22;align=center;" vertex="1" parent="1">
          <mxGeometry x="680" y="290" width="120" height="60" as="geometry"/>
        </mxCell>
        <mxCell id="osJKglft7ATYs9inyH4e-31" value="" style="endArrow=classic;html=1;fontSize=22;exitX=0.5;exitY=1;exitDx=0;exitDy=0;entryX=-0.009;entryY=0.546;entryDx=0;entryDy=0;entryPerimeter=0;" edge="1" parent="1" source="osJKglft7ATYs9inyH4e-27" target="osJKglft7ATYs9inyH4e-10">
          <mxGeometry width="50" height="50" relative="1" as="geometry">
            <mxPoint x="120" y="490" as="sourcePoint"/>
            <mxPoint x="170" y="440" as="targetPoint"/>
          </mxGeometry>
        </mxCell>
        <mxCell id="osJKglft7ATYs9inyH4e-32" value="" style="endArrow=classic;html=1;fontSize=22;exitX=0.433;exitY=1.05;exitDx=0;exitDy=0;exitPerimeter=0;entryX=1.009;entryY=0.611;entryDx=0;entryDy=0;entryPerimeter=0;" edge="1" parent="1" source="osJKglft7ATYs9inyH4e-28" target="osJKglft7ATYs9inyH4e-10">
          <mxGeometry width="50" height="50" relative="1" as="geometry">
            <mxPoint x="700" y="480" as="sourcePoint"/>
            <mxPoint x="750" y="430" as="targetPoint"/>
          </mxGeometry>
        </mxCell>
      </root>
    </mxGraphModel>
  </diagram>
</mxfile>
